# xmcd
# Track frame offsets:
# 150
# 13849
# 24907
# 37836
# 48204
# 61255
# 73602
# 88532
# 99057
# 113401
# 126202
# 137278
# 147858
# 159829
# 170366
# 185244
# 196891
# 207822
# 219069
# 229460
# 242786
# 253387
# 265327
# 274866
# 287282
# 299152
# 311955
# 323812
# 335317
# 346624
#
# Disc length: 4776 seconds
# Revision: 0
# Processed by: cddbd v1.5.2PL0 Copyright (c) Steve Scherf et al.
# Submitted via: VisiTrax 2.11.3.279 - For more info visit www.synapsa.com
#
DISCID=ac12a61e
DTITLE=Various (1920's-1960's) Gospel and Jazz and Blues and Soul and R&B  Artist
DTITLE=s - From Sacred To Secular - A Soul Awakening:- Soul Chronology 6- "Ci
DTITLE=garettes And Coffee": CD6 of 8: *ReMastered Tracks
DYEAR=1959
DGENRE=Soul
TTITLE0=Nina Simone - Gin House Blues*
TTITLE1=Brother Joe May and Jacqui Verdell - You're Gonna Need Him*
TTITLE2=Ike and Tina Turner - I Idolize You*
TTITLE3=Bobby 'Blue' Bland - I'll Take Care Of You*
TTITLE4=Little Willie John - Heartbreak (It's Hurtin' Me)*
TTITLE5=Sunset Travelers The - You Are Blessed*
TTITLE6=Aretha Franklin with The Ray Bryant Combo - Won't Be Long*
TTITLE7=Al "TNT" Braggs - Cigarettes And Coffee*
TTITLE8=Mitty Collier - I Got To Get Away From It All*
TTITLE9=James Brown - Think*
TTITLE10=Womack Brothers The - Couldn't Hear Nobody Pray*
TTITLE11=Prince La La - She Put The Hurt On Me*
TTITLE12=Ernie K Doe - Waiting At The Station*
TTITLE13=Impressions The - Can't Work No Longer*
TTITLE14=Jackie Wilson - You Don't Know What It Means*
TTITLE15=5 Royales The - Not Going To Cry*
TTITLE16=Helen Bryant - I've Learned My Lesson*
TTITLE17=Sugar Pie DeSanto - Going Back Where I Belong*
TTITLE18=Sims Twins The - Soothe Me Sam*
TTITLE19=Johnny and Jackey - Someday We'll Be Together*
TTITLE20=Joe Simon - Everybody Needs Somebody*
TTITLE21=Ricky Lyons - Have No Fear Ricky*
TTITLE22=Etta James - Waiting For Charlie To Come Home*
TTITLE23=Gospel Stars The - Behold The Saints Of God*
TTITLE24=Miracles The - Mighty Good Lovin*
TTITLE25=Johnny Adams - A Losing Battle*
TTITLE26=Little Junior Parker - Driving Wheel*
TTITLE27=Marvin Gaye - Hitch Hike*
TTITLE28=Solomon Burke - Cry To Me*
TTITLE29=Mar-Keys The - Last Night*
EXTD=Eight CD's in a book style holder. Discs and Tracks in chronological o
EXTD=rder with a 35 page central section with alternate pages of Track Info
EXTD=rmation and Performer Photo'sCompiled, ReMastered and Presented: History O
EXTD=f Soul Records: 2015
EXTT0=
EXTT1=
EXTT2=
EXTT3=
EXTT4=
EXTT5=
EXTT6=
EXTT7=
EXTT8=
EXTT9=
EXTT10=
EXTT11=
EXTT12=
EXTT13=
EXTT14=
EXTT15=
EXTT16=
EXTT17=
EXTT18=
EXTT19=
EXTT20=
EXTT21=
EXTT22=
EXTT23=
EXTT24=
EXTT25=
EXTT26=
EXTT27=
EXTT28=
EXTT29=
PLAYORDER=
